<mxfile host="Electron" modified="2024-07-18T06:07:57.477Z" agent="Mozilla/5.0 (Windows NT 10.0; Win64; x64) AppleWebKit/537.36 (KHTML, like Gecko) draw.io/21.2.1 Chrome/112.0.5615.87 Electron/24.1.2 Safari/537.36" etag="uGdUpH_wtonw9lOhaeZW" version="21.2.1" type="device">
  <diagram name="Page-1" id="1KvLHjhDO8Ya7sMIbihE">
    <mxGraphModel dx="1434" dy="75" grid="1" gridSize="10" guides="0" tooltips="1" connect="0" arrows="0" fold="1" page="1" pageScale="1" pageWidth="1169" pageHeight="827" math="0" shadow="0">
      <root>
        <mxCell id="0" />
        <mxCell id="1" parent="0" />
        <mxCell id="Zq6veke_SO07f4gpi4If-5" value="тема" style="swimlane;horizontal=0;whiteSpace=wrap;html=1;swimlaneLine=1;fontStyle=0;align=center;verticalAlign=middle;startSize=23;" parent="1" vertex="1">
          <mxGeometry x="60" y="880" width="350" height="180" as="geometry">
            <mxRectangle x="-350" y="180" width="40" height="150" as="alternateBounds" />
          </mxGeometry>
        </mxCell>
        <mxCell id="Zq6veke_SO07f4gpi4If-43" value="" style="ellipse;whiteSpace=wrap;html=1;aspect=fixed;" parent="Zq6veke_SO07f4gpi4If-5" vertex="1">
          <mxGeometry x="310" y="80" width="20.58" height="20.58" as="geometry" />
        </mxCell>
        <mxCell id="Zq6veke_SO07f4gpi4If-14" value="тема" style="swimlane;horizontal=0;whiteSpace=wrap;html=1;swimlaneLine=1;fontStyle=0;align=center;verticalAlign=middle;" parent="1" vertex="1">
          <mxGeometry x="410" y="880" width="350" height="180" as="geometry">
            <mxRectangle x="-350" y="180" width="40" height="150" as="alternateBounds" />
          </mxGeometry>
        </mxCell>
        <mxCell id="Zq6veke_SO07f4gpi4If-17" value="" style="ellipse;whiteSpace=wrap;html=1;aspect=fixed;" parent="Zq6veke_SO07f4gpi4If-14" vertex="1">
          <mxGeometry x="310" y="80" width="20.58" height="20.58" as="geometry" />
        </mxCell>
        <mxCell id="Zq6veke_SO07f4gpi4If-16" value="тема" style="swimlane;horizontal=0;whiteSpace=wrap;html=1;swimlaneLine=1;fontStyle=0;align=center;verticalAlign=middle;" parent="1" vertex="1">
          <mxGeometry x="760" y="880" width="350" height="180" as="geometry">
            <mxRectangle x="-350" y="180" width="40" height="150" as="alternateBounds" />
          </mxGeometry>
        </mxCell>
        <mxCell id="Zq6veke_SO07f4gpi4If-18" value="" style="ellipse;whiteSpace=wrap;html=1;aspect=fixed;" parent="Zq6veke_SO07f4gpi4If-16" vertex="1">
          <mxGeometry x="310" y="80" width="20.58" height="20.58" as="geometry" />
        </mxCell>
        <mxCell id="s53DqM8_BvANkrB4gYAK-7" value="тема" style="swimlane;horizontal=0;whiteSpace=wrap;html=1;swimlaneLine=1;fontStyle=0;align=center;verticalAlign=middle;startSize=23;" vertex="1" parent="1">
          <mxGeometry x="60" y="1060" width="350" height="180" as="geometry">
            <mxRectangle x="-350" y="180" width="40" height="150" as="alternateBounds" />
          </mxGeometry>
        </mxCell>
        <mxCell id="s53DqM8_BvANkrB4gYAK-8" value="" style="ellipse;whiteSpace=wrap;html=1;aspect=fixed;" vertex="1" parent="s53DqM8_BvANkrB4gYAK-7">
          <mxGeometry x="310" y="80" width="20.58" height="20.58" as="geometry" />
        </mxCell>
        <mxCell id="s53DqM8_BvANkrB4gYAK-9" value="тема" style="swimlane;horizontal=0;whiteSpace=wrap;html=1;swimlaneLine=1;fontStyle=0;align=center;verticalAlign=middle;" vertex="1" parent="1">
          <mxGeometry x="410" y="1060" width="350" height="180" as="geometry">
            <mxRectangle x="-350" y="180" width="40" height="150" as="alternateBounds" />
          </mxGeometry>
        </mxCell>
        <mxCell id="s53DqM8_BvANkrB4gYAK-10" value="" style="ellipse;whiteSpace=wrap;html=1;aspect=fixed;" vertex="1" parent="s53DqM8_BvANkrB4gYAK-9">
          <mxGeometry x="310" y="80" width="20.58" height="20.58" as="geometry" />
        </mxCell>
        <mxCell id="s53DqM8_BvANkrB4gYAK-11" value="тема" style="swimlane;horizontal=0;whiteSpace=wrap;html=1;swimlaneLine=1;fontStyle=0;align=center;verticalAlign=middle;" vertex="1" parent="1">
          <mxGeometry x="760" y="1060" width="350" height="180" as="geometry">
            <mxRectangle x="-350" y="180" width="40" height="150" as="alternateBounds" />
          </mxGeometry>
        </mxCell>
        <mxCell id="s53DqM8_BvANkrB4gYAK-12" value="" style="ellipse;whiteSpace=wrap;html=1;aspect=fixed;" vertex="1" parent="s53DqM8_BvANkrB4gYAK-11">
          <mxGeometry x="310" y="80" width="20.58" height="20.58" as="geometry" />
        </mxCell>
        <mxCell id="s53DqM8_BvANkrB4gYAK-13" value="тема" style="swimlane;horizontal=0;whiteSpace=wrap;html=1;swimlaneLine=1;fontStyle=0;align=center;verticalAlign=middle;startSize=23;" vertex="1" parent="1">
          <mxGeometry x="60" y="1240" width="350" height="180" as="geometry">
            <mxRectangle x="-350" y="180" width="40" height="150" as="alternateBounds" />
          </mxGeometry>
        </mxCell>
        <mxCell id="s53DqM8_BvANkrB4gYAK-14" value="" style="ellipse;whiteSpace=wrap;html=1;aspect=fixed;" vertex="1" parent="s53DqM8_BvANkrB4gYAK-13">
          <mxGeometry x="310" y="80" width="20.58" height="20.58" as="geometry" />
        </mxCell>
        <mxCell id="s53DqM8_BvANkrB4gYAK-15" value="тема" style="swimlane;horizontal=0;whiteSpace=wrap;html=1;swimlaneLine=1;fontStyle=0;align=center;verticalAlign=middle;" vertex="1" parent="1">
          <mxGeometry x="410" y="1240" width="350" height="180" as="geometry">
            <mxRectangle x="-350" y="180" width="40" height="150" as="alternateBounds" />
          </mxGeometry>
        </mxCell>
        <mxCell id="s53DqM8_BvANkrB4gYAK-16" value="" style="ellipse;whiteSpace=wrap;html=1;aspect=fixed;" vertex="1" parent="s53DqM8_BvANkrB4gYAK-15">
          <mxGeometry x="310" y="80" width="20.58" height="20.58" as="geometry" />
        </mxCell>
        <mxCell id="s53DqM8_BvANkrB4gYAK-17" value="тема" style="swimlane;horizontal=0;whiteSpace=wrap;html=1;swimlaneLine=1;fontStyle=0;align=center;verticalAlign=middle;" vertex="1" parent="1">
          <mxGeometry x="760" y="1240" width="350" height="180" as="geometry">
            <mxRectangle x="-350" y="180" width="40" height="150" as="alternateBounds" />
          </mxGeometry>
        </mxCell>
        <mxCell id="s53DqM8_BvANkrB4gYAK-18" value="" style="ellipse;whiteSpace=wrap;html=1;aspect=fixed;" vertex="1" parent="s53DqM8_BvANkrB4gYAK-17">
          <mxGeometry x="310" y="80" width="20.58" height="20.58" as="geometry" />
        </mxCell>
        <mxCell id="s53DqM8_BvANkrB4gYAK-19" value="тема" style="swimlane;horizontal=0;whiteSpace=wrap;html=1;swimlaneLine=1;fontStyle=0;align=center;verticalAlign=middle;startSize=23;" vertex="1" parent="1">
          <mxGeometry x="60" y="1420" width="350" height="180" as="geometry">
            <mxRectangle x="-350" y="180" width="40" height="150" as="alternateBounds" />
          </mxGeometry>
        </mxCell>
        <mxCell id="s53DqM8_BvANkrB4gYAK-20" value="" style="ellipse;whiteSpace=wrap;html=1;aspect=fixed;" vertex="1" parent="s53DqM8_BvANkrB4gYAK-19">
          <mxGeometry x="310" y="80" width="20.58" height="20.58" as="geometry" />
        </mxCell>
        <mxCell id="s53DqM8_BvANkrB4gYAK-21" value="тема" style="swimlane;horizontal=0;whiteSpace=wrap;html=1;swimlaneLine=1;fontStyle=0;align=center;verticalAlign=middle;" vertex="1" parent="1">
          <mxGeometry x="410" y="1420" width="350" height="180" as="geometry">
            <mxRectangle x="-350" y="180" width="40" height="150" as="alternateBounds" />
          </mxGeometry>
        </mxCell>
        <mxCell id="s53DqM8_BvANkrB4gYAK-22" value="" style="ellipse;whiteSpace=wrap;html=1;aspect=fixed;" vertex="1" parent="s53DqM8_BvANkrB4gYAK-21">
          <mxGeometry x="310" y="80" width="20.58" height="20.58" as="geometry" />
        </mxCell>
        <mxCell id="s53DqM8_BvANkrB4gYAK-23" value="тема" style="swimlane;horizontal=0;whiteSpace=wrap;html=1;swimlaneLine=1;fontStyle=0;align=center;verticalAlign=middle;" vertex="1" parent="1">
          <mxGeometry x="760" y="1420" width="350" height="180" as="geometry">
            <mxRectangle x="-350" y="180" width="40" height="150" as="alternateBounds" />
          </mxGeometry>
        </mxCell>
        <mxCell id="s53DqM8_BvANkrB4gYAK-24" value="" style="ellipse;whiteSpace=wrap;html=1;aspect=fixed;" vertex="1" parent="s53DqM8_BvANkrB4gYAK-23">
          <mxGeometry x="310" y="80" width="20.58" height="20.58" as="geometry" />
        </mxCell>
      </root>
    </mxGraphModel>
  </diagram>
</mxfile>
